<?xml version="1.0" encoding="UTF-8"?> <svg xmlns="http://www.w3.org/2000/svg" id="Layer_1" data-name="Layer 1" viewBox="0 0 800 194"><defs><style>.cls-1{fill:#fff;}.cls-2{fill:#0082ca;}</style></defs><path class="cls-1" d="M226.33,33.08h9.09V10h11.46V68.81H235.42V42.61h-9.09v26.2H214.86V10h11.47Z"></path><path class="cls-1" d="M289.58,10V52.4c0,6.27-1.05,9.8-4,13-3,3.35-6.79,4.94-12.08,4.94s-9.35-1.59-12.35-4.94c-2.92-3.17-4-6.7-4-13V10h11.47V52.4c0,3.18.17,4.24.7,5.3a4.58,4.58,0,0,0,8,0c.53-1.06.71-2.12.71-5.3V10Z"></path><path class="cls-1" d="M312.79,10l9.44,37.23L331.75,10h12.62V68.81H333.78V32.91l-7.14,28.85h-9.09l-7.06-28.85v35.9H299.91V10Z"></path><path class="cls-1" d="M364.75,59.73,363,68.81H351.43L364.75,9.7h12.7l12.89,59.11H378.25l-1.5-9.08ZM371,23.47l-4.67,26.82h8.73Z"></path><path class="cls-1" d="M409.39,10l10.32,35.82V10H430.3V68.81H418.48L408,35.2V68.81H397.39V10Z"></path><path class="cls-1" d="M472.74,59.73,471,68.81H459.41L472.74,9.7h12.7l12.88,59.11H486.23l-1.5-9.08ZM479,23.47l-4.68,26.82h8.74Z"></path><path class="cls-1" d="M517.38,10,527.7,45.79V10h10.59V68.81H526.46L516,35.2V68.81H505.38V10Z"></path><path class="cls-1" d="M560.34,68.81H548.87V10h11.47Z"></path><path class="cls-1" d="M583.81,10l9.44,37.23L602.78,10h12.61V68.81H604.81V32.91l-7.15,28.85h-9.09l-7.05-28.85v35.9H570.93V10Z"></path><path class="cls-1" d="M635.77,59.73,634,68.81H622.45L635.77,9.7h12.71l12.88,59.11H649.27l-1.5-9.08ZM642,23.47l-4.68,26.82h8.73Z"></path><path class="cls-1" d="M679.88,10V59.11h13.33v9.7h-24.8V10Z"></path><path class="cls-1" d="M238.33,97.35c-.62-5.12-2.47-7.59-5.65-7.59-2.91,0-4.94,2.2-4.94,5.29s1.41,5.12,6.26,9.26l5.47,4.59c6.44,5.38,8.91,9.79,8.91,15.88,0,10.24-6.79,17.12-17,17.12-9.09,0-15-5.38-16.5-15l10.59-2.56c.88,4.94,3.08,7.5,6.35,7.5,2.91,0,5.12-2.47,5.12-5.65,0-2.91-1.68-5.38-6.18-9.17L225,112.17a35.65,35.65,0,0,1-5.74-6.18,15.78,15.78,0,0,1-3.09-10c0-9.7,6.36-16,16.24-16,8.64,0,13.76,4.5,15.79,13.85Z"></path><path class="cls-1" d="M288.79,81.55V124c0,6.26-1.06,9.79-4,13-3,3.35-6.79,4.94-12.09,4.94s-9.35-1.59-12.35-4.94c-2.91-3.18-4-6.71-4-13V81.55h11.47V124c0,3.17.18,4.23.71,5.29a4.58,4.58,0,0,0,8,0c.52-1.06.7-2.12.7-5.29V81.55Z"></path><path class="cls-1" d="M311.82,81.55c12.08,0,18,6.53,18,19.94,0,13-6.17,19.76-18,19.76h-1.24V140.4H299.11V81.55ZM310.58,112c2.47,0,3.71-.26,4.85-1.32,1.77-1.59,2.65-4.77,2.65-9.18,0-7.67-2-10.59-7.5-10.5Z"></path><path class="cls-1" d="M350,81.55c12.08,0,18,6.53,18,19.94,0,13-6.18,19.76-18,19.76h-1.24V140.4H337.31V81.55ZM348.78,112c2.47,0,3.71-.26,4.85-1.32,1.77-1.59,2.65-4.77,2.65-9.18,0-7.67-2-10.59-7.5-10.5Z"></path><path class="cls-1" d="M404.19,85.52c4.14,5.65,5.64,12.44,5.64,26,0,12.35-1.59,19.41-5.64,24.88-2.56,3.53-6.89,5.47-11.91,5.47-5.3,0-9.62-1.94-12.18-5.47-4.15-5.65-5.65-12.44-5.65-25.5,0-12.88,1.59-19.94,5.65-25.41,2.65-3.53,6.88-5.47,12-5.47C397.39,80.05,401.54,82,404.19,85.52Zm-18,25.41c0,16.15,1.41,20.91,6,20.91s5.91-4.94,5.91-20.64c0-16.41-1.33-21.18-6-21.18C387.6,90,386.19,94.87,386.19,110.93Z"></path><path class="cls-1" d="M433,81.55c12.79,0,19,5.56,19,17.12,0,7.5-3.52,12.88-9.61,14.73l11,27h-13l-10.24-27v27H418.65V81.55Zm-.89,25.24c5.39,0,7.94-2.56,7.94-7.94S437.45,91,432.06,91h-1.94v15.8Z"></path><path class="cls-1" d="M487.91,91.26h-9.18V140.4H467.26V91.26h-9.08V81.55h29.73Z"></path><path class="cls-1" d="M537.49,97.35c-.62-5.12-2.47-7.59-5.65-7.59-2.91,0-4.94,2.2-4.94,5.29s1.42,5.12,6.27,9.26l5.47,4.59c6.44,5.38,8.91,9.79,8.91,15.88,0,10.24-6.79,17.12-17,17.12-9.09,0-15-5.38-16.5-15l10.59-2.56c.88,4.94,3.09,7.5,6.35,7.5,2.91,0,5.12-2.47,5.12-5.65,0-2.91-1.68-5.38-6.18-9.17l-5.73-4.85a35.65,35.65,0,0,1-5.74-6.18,15.83,15.83,0,0,1-3.08-10c0-9.7,6.35-16,16.23-16,8.65,0,13.76,4.5,15.79,13.85Z"></path><path class="cls-1" d="M580.63,81.55v9.71H567.31v14h13.32v9.52H567.31v15.88h13.32v9.71H555.84V81.55Z"></path><path class="cls-1" d="M604.63,81.55c12.79,0,19,5.56,19,17.12,0,7.5-3.53,12.88-9.62,14.73l11,27H612l-10.24-27v27H590.34V81.55Zm-.88,25.24c5.38,0,7.94-2.56,7.94-7.94S609.13,91,603.75,91h-2v15.8Z"></path><path class="cls-1" d="M641.24,81.55l4.59,40.32,5.91-40.32h11.2l-11.2,58.85H639.83L628.89,81.55Z"></path><path class="cls-1" d="M681.65,140.4H670.18V81.55h11.47Z"></path><path class="cls-1" d="M712.44,98.58c-.71-5.82-2.21-8.82-4.59-8.82-4.06,0-5.65,6.17-5.65,22.23,0,14.73,1.41,20.2,5.12,20.2,3,0,4.41-3.08,5.12-10.67l10,3.79c-1.23,10.24-7.32,16.59-15.7,16.59a14.12,14.12,0,0,1-13.06-8.21c-2.38-5.29-3.26-11-3.26-21.79,0-10.32.71-16.41,2.56-21.44a15.25,15.25,0,0,1,14.64-10.41c6,0,10.85,3.09,13.06,8.3a23.91,23.91,0,0,1,1.76,7.5Z"></path><path class="cls-1" d="M755,81.55v9.71H741.64v14H755v9.52H741.64v15.88H755v9.71H730.17V81.55Z"></path><path class="cls-1" d="M784.69,97.35c-.62-5.12-2.47-7.59-5.65-7.59-2.91,0-4.94,2.2-4.94,5.29s1.42,5.12,6.27,9.26l5.47,4.59c6.44,5.38,8.91,9.79,8.91,15.88,0,10.24-6.79,17.12-17,17.12-9.09,0-15-5.38-16.5-15l10.59-2.56c.88,4.94,3.09,7.5,6.35,7.5,2.91,0,5.12-2.47,5.12-5.65,0-2.91-1.68-5.38-6.18-9.17l-5.73-4.85a35.65,35.65,0,0,1-5.74-6.18,15.83,15.83,0,0,1-3.08-10c0-9.7,6.35-16,16.23-16,8.65,0,13.76,4.5,15.79,13.85Z"></path><path class="cls-1" d="M360.88,180.6h-1v5.11h-4.62v-25h5.59c5.49,0,5.6,2.86,5.6,5v10c0,2.1-.11,4.95-5.6,4.95m.94-16a1,1,0,0,0-.94-1h-1v14h1a.92.92,0,0,0,.94-.93Z"></path><path class="cls-1" d="M373.72,186c-5.48,0-5.59-2.85-5.59-4.95V165.33c0-2.14.11-5,5.59-5s5.59,2.86,5.59,5V174h-6.53v8a.94.94,0,1,0,1.88,0V176h4.65V181c0,2.1-.11,4.95-5.59,4.95m.94-21.73a.94.94,0,1,0-1.88,0V171h1.88Z"></path><path class="cls-1" d="M386.86,185.93c-5.48,0-5.6-2.85-5.6-5V160.6h4.66V163h6.53v3.87h-6.53v15.24a.94.94,0,1,0,1.87,0V171h4.66v10c0,2.1-.07,5-5.59,5"></path><path class="cls-1" d="M400,185.93c-5.49,0-5.6-2.85-5.6-5v-5.11h4.66v6.2a.94.94,0,1,0,1.87,0v-7.14a1,1,0,0,0-.93-1h-2a4.38,4.38,0,0,1-1-.15c-1.88-.68-2.63-1.92-2.63-4.58v-3.94c0-2.1.11-5,5.6-5s5.59,2.86,5.59,5v3.79h-4.66V164.2a.94.94,0,1,0-1.87,0V170a.93.93,0,0,0,.94.94H402a3.86,3.86,0,0,1,1,.19c1.88.67,2.63,1.91,2.63,4.57V181c0,2.1-.08,5-5.59,5"></path><path class="cls-1" d="M417.79,185.7v-.94a3.93,3.93,0,0,1-3.94,1.05c-1.87-.63-2.62-1.87-2.62-4.54V176c0-2.1.11-5,5.59-5h1l0-6.75a.94.94,0,1,0-1.87,0v4.88h-4.65v-3.8c0-2.1.11-4.95,5.59-4.95s5.59,2.85,5.59,4.95V185.7Zm0-11.63h-1a.93.93,0,0,0-.94.94v7.05a1,1,0,0,0,.94,1,1,1,0,0,0,1-1Z"></path><polygon class="cls-1" points="424.36 185.7 424.36 160.67 428.97 160.67 428.97 181.84 432.05 181.84 432.05 185.7 424.36 185.7"></polygon><rect class="cls-1" x="433.4" y="160.67" width="4.65" height="25.03"></rect><polygon class="cls-1" points="449.24 185.7 442.67 185.7 439.26 160.67 443.87 160.67 445.94 182.74 448.04 160.67 452.65 160.67 449.24 185.7"></polygon><path class="cls-1" d="M459.37,186c-5.48,0-5.59-2.85-5.59-5V165.32c0-2.13.11-5,5.59-5s5.59,2.86,5.59,5V174h-6.53v8a.94.94,0,1,0,1.88,0v-6.12H465V181c0,2.1-.11,5-5.59,5m.94-21.72a.94.94,0,1,0-1.88,0V171h1.88Z"></path><path class="cls-1" d="M253,185.69v-.94a4,4,0,0,1-3.95,1.05c-1.87-.63-2.62-1.87-2.62-4.54V176c0-2.1.11-5,5.59-5h1l0-6.76a.94.94,0,1,0-1.88,0v4.88h-4.65v-3.79c0-2.1.11-5,5.59-5s5.59,2.86,5.59,5v20.38Zm0-11.64h-1a.93.93,0,0,0-.94.94v7.06a1,1,0,0,0,.94,1,1,1,0,0,0,1-1Z"></path><path class="cls-1" d="M272.7,185.69V164.26a1,1,0,0,0-1.92,0v21.47h-4.65V164.26a.94.94,0,1,0-1.88,0v21.43h-4.66V160.62h4.66v1.2a3,3,0,0,1,2.59-1.47,3.7,3.7,0,0,1,3.27,1.39,4.34,4.34,0,0,1,3.3-1.39c2.59,0,4,1.35,4,4v21.36Z"></path><path class="cls-1" d="M284.93,186c-5.48,0-5.59-2.85-5.59-4.95V165.31c0-2.14.11-5,5.59-5s5.6,2.86,5.6,5V174H284v8a.94.94,0,1,0,1.88,0v-6.12h4.66V181C290.53,183.1,290.41,186,284.93,186Zm.94-21.73a.94.94,0,1,0-1.88,0V171h1.88Z"></path><path class="cls-1" d="M299,173.94v-9.68a.94.94,0,1,0-1.88,0v21.43h-4.65V160.58h4.65v1.2a3,3,0,0,1,2.59-1.47c2.59,0,3.94,1.36,3.94,4.06v9.57Z"></path><path class="cls-1" d="M305.47,185.69v-25h4.65v25Z"></path><path class="cls-1" d="M317.74,186c-5.48,0-5.59-2.85-5.59-4.95V165.35c0-2.14.11-5,5.59-5s5.59,2.86,5.59,5V171h-4.65v-6.75a1,1,0,0,0-.94-1,1,1,0,0,0-1,1v17.83a1,1,0,0,0,1,.94.93.93,0,0,0,.94-.94v-8h4.65V181C323.33,183.1,323.22,186,317.74,186Z"></path><path class="cls-1" d="M331.85,185.69v-.94a3.93,3.93,0,0,1-3.94,1.05c-1.87-.63-2.63-1.87-2.63-4.54V176c0-2.1.12-5,5.6-5h1l0-6.76a.94.94,0,1,0-1.88,0v4.88h-4.66v-3.79c0-2.1.12-5,5.6-5s5.59,2.86,5.59,5v20.38Zm0-11.64h-1a.93.93,0,0,0-.94.94v7.06a1,1,0,0,0,.94,1,1,1,0,0,0,1-1Z"></path><path class="cls-1" d="M345,185.65V164.22a.94.94,0,1,0-1.87,0v21.43h-4.66V160.58h4.66v1.2a3,3,0,0,1,2.55-1.47c2.59,0,4,1.36,4,4v21.36Z"></path><polygon class="cls-1" points="472.31 178.11 468.79 178.11 468.06 158.55 473.08 158.55 472.31 178.11"></polygon><path class="cls-1" d="M472.61,183.94a2.05,2.05,0,1,1-2.05-2.05,2,2,0,0,1,2.05,2.05"></path><path class="cls-1" d="M473.43,183.14c.3-.36.71-.51.91-.34s.13.6-.18,1-.71.52-.91.35-.12-.61.18-1"></path><path class="cls-1" d="M472.82,181.44c.3-.36.71-.51.92-.34s.12.6-.18,1-.71.51-.92.34-.12-.6.18-1"></path><path class="cls-1" d="M471.64,180.42c.31-.36.72-.52.92-.35s.12.61-.18,1-.71.51-.92.34-.12-.6.18-1"></path><path class="cls-1" d="M469.76,180.22c.3-.36.71-.51.92-.34s.12.6-.18,1-.71.51-.92.34-.12-.6.18-1"></path><path class="cls-1" d="M217.89,162.56v6.33c.74-1.7,1.43-2.36,2.47-2.36a2.66,2.66,0,0,1,2.34,1.85,13.48,13.48,0,0,1,.69,4.56c0,4-1.13,6.38-3.08,6.38-1.21,0-1.85-.66-2.54-2.54V179h-2.91V162.56Zm-.12,10.38c0,2.44.42,3.59,1.28,3.59s1.21-1.13,1.21-3.57-.4-3.57-1.21-3.57S217.77,170.54,217.77,172.94Z"></path><path class="cls-1" d="M228,166.85l1.4,8.23,1.63-8.23h3.13l-4.46,16.41h-3.08l1.28-4.56-3.2-11.85Z"></path><path class="cls-2" d="M100.46,82.05c2.76-1.68,5.28-3.47,8-4.85,17.73-9,40-1.6,49.05,16.07a36.85,36.85,0,0,1-6.88,43.46L103.54,183.8c-2.06,2.07-3.5,2.07-5.57,0L51.21,137.05a37,37,0,0,1-1.44-51.22c7.81-8.61,17.74-12.58,29.38-12a35.94,35.94,0,0,1,21,8,3.27,3.27,0,0,0,.37.28C100.56,82.1,100.64,82.11,100.46,82.05Zm-5.7,61.65a10.8,10.8,0,0,1,7.85,3.25,11.33,11.33,0,0,1,3.23,7.83c5.28.67,7.17,1.83,10.09,6.24a10.49,10.49,0,0,0,.68-1.08,5.47,5.47,0,0,0-1.27-6.44L92.65,130.82a10.27,10.27,0,0,1-1.08-1.2,3,3,0,0,1,.9-4.32c1.36-.86,2.76-.61,4.14.76q11.15,11.15,22.29,22.27A9.53,9.53,0,0,0,121,150a5.48,5.48,0,0,0,6.29-8.84Q116,129.85,104.73,118.6a9,9,0,0,1-.94-1,3,3,0,0,1,1.76-4.82,3.56,3.56,0,0,1,3.49,1.31L128,133c1.33,1.33,2.64,2.69,4,4a5.28,5.28,0,0,0,5.53,1.36,5.22,5.22,0,0,0,3.74-4.15,5.59,5.59,0,0,0-1.8-5.31Q126.7,116.18,114,103.44c-.21-.21-.45-.41-1-.89a5.68,5.68,0,0,1-.68,1.1c-4.81,4.83-9.63,9.63-14.44,14.46a11.9,11.9,0,0,1-7.95,3.72A11.64,11.64,0,0,1,81,102c4.46-4.51,9-9,13.46-13.46.6-.6,1.25-1.13,1.89-1.71A30.6,30.6,0,0,0,53.52,90.9c-11.26,13.4-8.39,32.53,2.63,42.2,2.88-2.88,5.74-5.79,8.65-8.65a11,11,0,0,1,16.24,1,11.39,11.39,0,0,1,2.43,6.91C89.57,132.75,94.38,136.81,94.76,143.7Zm52.59-12.47c.43-.47.73-.77,1-1.09a30.24,30.24,0,0,0,6.81-24.55c-3.34-22.53-30-33.68-48.37-20.16-3.1,2.28-5.7,5.25-8.46,8-4.31,4.23-8.57,8.52-12.82,12.8a5.47,5.47,0,0,0,0,8,5.55,5.55,0,0,0,7.87-.38q8.55-8.5,17.06-17c2.06-2.06,3.51-2.05,5.59,0q13.14,13.13,26.29,26.26C144.65,125.35,146.83,127.65,147.35,131.23ZM78.52,155.46c2.58-2.59,5.17-5.16,7.74-7.76a11.79,11.79,0,0,0,1.36-1.56A4.76,4.76,0,0,0,87,140a4.56,4.56,0,0,0-6.2-.32c-3.08,2.95-6,6.1-8.89,9.12Zm-17.85-18,6.77,6.76,4.37-4.4c1.43-1.45,2.93-2.84,4.28-4.37a4.76,4.76,0,0,0-.24-6.49,4.66,4.66,0,0,0-6.47-.24C66.38,131.55,63.51,134.55,60.67,137.42ZM83,159.75l6.8,6.8,8-8a9.54,9.54,0,0,0,1-1.13,4.8,4.8,0,0,0-.67-6.29,4.68,4.68,0,0,0-6.4,0C88.69,153.93,85.82,156.89,83,159.75Zm17.87,18c2.92-2.9,5.89-5.75,8.73-8.72a4.71,4.71,0,0,0-.82-7.08,4.82,4.82,0,0,0-6.38.75c-2.69,2.64-5.34,5.32-8,8a1.55,1.55,0,0,0-.24.34Z"></path><path class="cls-2" d="M26.91,85.29A22.42,22.42,0,1,1,49.33,62.87,22.45,22.45,0,0,1,26.91,85.29Zm0-37.83A15.42,15.42,0,1,0,42.33,62.87,15.42,15.42,0,0,0,26.91,47.46Z"></path><path class="cls-2" d="M73.37,53.69A22.42,22.42,0,1,1,95.78,31.27,22.44,22.44,0,0,1,73.37,53.69Zm0-37.83A15.42,15.42,0,1,0,88.79,31.27,15.43,15.43,0,0,0,73.37,15.86Z"></path><path class="cls-2" d="M128.82,53.5a22.42,22.42,0,1,1,22.41-22.42A22.45,22.45,0,0,1,128.82,53.5Zm0-37.83a15.42,15.42,0,1,0,15.41,15.41A15.43,15.43,0,0,0,128.82,15.67Z"></path><path class="cls-2" d="M175,84.83a22.42,22.42,0,1,1,22.41-22.42A22.44,22.44,0,0,1,175,84.83ZM175,47a15.42,15.42,0,1,0,15.42,15.41A15.43,15.43,0,0,0,175,47Z"></path></svg> 