<?xml version="1.0" encoding="UTF-8"?>
<!DOCTYPE svg PUBLIC "-//W3C//DTD SVG 1.1//EN" "http://www.w3.org/Graphics/SVG/1.1/DTD/svg11.dtd">
<svg xmlns="http://www.w3.org/2000/svg" version="1.1" width="3184px" height="563px" style="shape-rendering:geometricPrecision; text-rendering:geometricPrecision; image-rendering:optimizeQuality; fill-rule:evenodd; clip-rule:evenodd" xmlns:xlink="http://www.w3.org/1999/xlink">
<g><path style="opacity:0.959" fill="#0081cb" d="M 210.5,-0.5 C 215.833,-0.5 221.167,-0.5 226.5,-0.5C 259.302,5.32622 280.135,24.3262 289,56.5C 294.226,93.8848 280.059,121.051 246.5,138C 206.444,150.705 175.61,139.205 154,103.5C 138.815,64.3811 148.315,32.8811 182.5,9C 191.446,4.29643 200.779,1.12976 210.5,-0.5 Z M 215.5,22.5 C 244.67,23.8403 261.837,38.8403 267,67.5C 267.482,91.0438 256.982,107.544 235.5,117C 207.836,124.411 187.336,115.578 174,90.5C 164.954,61.1034 174.121,39.6034 201.5,26C 206.224,24.5058 210.891,23.3391 215.5,22.5 Z"/></g>
<g><path style="opacity:0.961" fill="#0081cb" d="M 382.5,-0.5 C 390.833,-0.5 399.167,-0.5 407.5,-0.5C 449.594,10.9654 469.094,38.632 466,82.5C 457.302,120.197 433.635,140.197 395,142.5C 355.934,140.102 332.268,119.768 324,81.5C 321.657,38.3731 341.157,11.0397 382.5,-0.5 Z M 387.5,22.5 C 407.86,20.7661 424.027,28.0994 436,44.5C 449.289,70.3892 444.789,92.5558 422.5,111C 397.16,124.916 374.994,121.083 356,99.5C 341.415,75.6807 343.915,53.8473 363.5,34C 370.673,28.2454 378.673,24.412 387.5,22.5 Z"/></g>
<g><path style="opacity:0.983" fill="#fefffe" d="M 1375.5,3.5 C 1393.9,2.85446 1412.07,3.52113 1430,5.5C 1448.03,87.8069 1465.86,170.14 1483.5,252.5C 1466.17,252.5 1448.83,252.5 1431.5,252.5C 1430.04,240.074 1428.04,227.74 1425.5,215.5C 1408.94,214.176 1392.44,214.176 1376,215.5C 1373.88,227.782 1371.38,239.949 1368.5,252C 1352.17,252.5 1335.84,252.667 1319.5,252.5C 1337.7,169.37 1356.37,86.37 1375.5,3.5 Z M 1401.5,65.5 C 1407.25,101.028 1412.92,136.695 1418.5,172.5C 1406.85,173.499 1395.19,173.832 1383.5,173.5C 1389.5,137.497 1395.5,101.497 1401.5,65.5 Z"/></g>
<g><path style="opacity:0.983" fill="#fefffe" d="M 1829.5,3.5 C 1847.9,2.85446 1866.07,3.52113 1884,5.5C 1902.03,87.8069 1919.86,170.14 1937.5,252.5C 1920.17,252.5 1902.83,252.5 1885.5,252.5C 1883.87,240.1 1881.87,227.767 1879.5,215.5C 1862.94,214.176 1846.44,214.176 1830,215.5C 1827.88,227.782 1825.38,239.949 1822.5,252C 1806.17,252.5 1789.84,252.667 1773.5,252.5C 1791.66,169.361 1810.33,86.3611 1829.5,3.5 Z M 1855.5,65.5 C 1861.25,101.028 1866.92,136.695 1872.5,172.5C 1860.85,173.499 1849.19,173.832 1837.5,173.5C 1843.5,137.5 1849.5,101.5 1855.5,65.5 Z"/></g>
<g><path style="opacity:0.982" fill="#fefffe" d="M 2514.5,3.5 C 2532.83,3.5 2551.17,3.5 2569.5,3.5C 2586.87,86.3014 2604.87,168.968 2623.5,251.5C 2606.17,252.833 2588.83,252.833 2571.5,251.5C 2568.96,239.258 2566.96,226.925 2565.5,214.5C 2548.83,214.5 2532.17,214.5 2515.5,214.5C 2513.17,227.166 2510.83,239.832 2508.5,252.5C 2491.82,252.833 2475.15,252.499 2458.5,251.5C 2477.29,168.858 2495.96,86.1917 2514.5,3.5 Z M 2540.5,67.5 C 2542.07,69.8109 2542.9,72.4776 2543,75.5C 2548.07,108.142 2552.9,140.808 2557.5,173.5C 2545.83,173.5 2534.17,173.5 2522.5,173.5C 2528.93,138.24 2534.93,102.907 2540.5,67.5 Z"/></g>
<g><path style="opacity:0.988" fill="#fefffe" d="M 745.5,4.5 C 761.833,4.5 778.167,4.5 794.5,4.5C 794.5,36.8333 794.5,69.1667 794.5,101.5C 806.833,101.5 819.167,101.5 831.5,101.5C 831.5,69.1667 831.5,36.8333 831.5,4.5C 847.833,4.5 864.167,4.5 880.5,4.5C 880.5,87.1667 880.5,169.833 880.5,252.5C 864.167,252.5 847.833,252.5 831.5,252.5C 831.5,215.833 831.5,179.167 831.5,142.5C 819.167,142.5 806.833,142.5 794.5,142.5C 794.5,179.167 794.5,215.833 794.5,252.5C 778.167,252.5 761.833,252.5 745.5,252.5C 745.5,169.833 745.5,87.1667 745.5,4.5 Z"/></g>
<g><path style="opacity:0.979" fill="#fefffe" d="M 923.5,4.5 C 939.833,4.5 956.167,4.5 972.5,4.5C 972.333,68.8342 972.5,133.168 973,197.5C 975.096,207.929 981.43,213.929 992,215.5C 1001.58,214.064 1007.58,208.73 1010,199.5C 1010.5,134.501 1010.67,69.5009 1010.5,4.5C 1027.17,4.5 1043.83,4.5 1060.5,4.5C 1060.67,67.1676 1060.5,129.834 1060,192.5C 1057.59,235.08 1035.09,257.413 992.5,259.5C 953.97,259.122 931.137,240.122 924,202.5C 923.5,136.501 923.333,70.5008 923.5,4.5 Z"/></g>
<g><path style="opacity:0.982" fill="#fefffe" d="M 1102.5,4.5 C 1121.08,4.17413 1139.58,4.50746 1158,5.5C 1170.84,56.5426 1183.84,107.543 1197,158.5C 1210.01,107.452 1223.18,56.4516 1236.5,5.5C 1254.49,4.50046 1272.49,4.16712 1290.5,4.5C 1290.5,87.1667 1290.5,169.833 1290.5,252.5C 1275.5,252.5 1260.5,252.5 1245.5,252.5C 1245.67,203.499 1245.5,154.499 1245,105.5C 1235.18,144.775 1225.68,184.109 1216.5,223.5C 1203.17,223.5 1189.83,223.5 1176.5,223.5C 1167.65,185.441 1158.49,147.441 1149,109.5C 1148.5,157.166 1148.33,204.832 1148.5,252.5C 1133.17,252.5 1117.83,252.5 1102.5,252.5C 1102.5,169.833 1102.5,87.1667 1102.5,4.5 Z"/></g>
<g><path style="opacity:0.991" fill="#fefffe" d="M 1512.5,4.5 C 1529.83,4.5 1547.17,4.5 1564.5,4.5C 1578.02,53.2306 1591.85,101.897 1606,150.5C 1606.5,101.834 1606.67,53.1678 1606.5,4.5C 1621.5,4.5 1636.5,4.5 1651.5,4.5C 1651.5,87.1667 1651.5,169.833 1651.5,252.5C 1634.5,252.5 1617.5,252.5 1600.5,252.5C 1586.44,206.488 1572.27,160.488 1558,114.5C 1557.5,160.499 1557.33,206.499 1557.5,252.5C 1542.5,252.5 1527.5,252.5 1512.5,252.5C 1512.5,169.833 1512.5,87.1667 1512.5,4.5 Z"/></g>
<g><path style="opacity:0.991" fill="#fefffe" d="M 1966.5,4.5 C 1983.83,4.5 2001.17,4.5 2018.5,4.5C 2032.02,53.2306 2045.85,101.897 2060,150.5C 2060.5,101.834 2060.67,53.1678 2060.5,4.5C 2075.5,4.5 2090.5,4.5 2105.5,4.5C 2105.5,87.1667 2105.5,169.833 2105.5,252.5C 2088.5,252.5 2071.5,252.5 2054.5,252.5C 2040.44,206.488 2026.27,160.488 2012,114.5C 2011.5,160.499 2011.33,206.499 2011.5,252.5C 1996.5,252.5 1981.5,252.5 1966.5,252.5C 1966.5,169.833 1966.5,87.1667 1966.5,4.5 Z"/></g>
<g><path style="opacity:0.989" fill="#fefffe" d="M 2149.5,4.5 C 2165.83,4.5 2182.17,4.5 2198.5,4.5C 2198.5,87.1667 2198.5,169.833 2198.5,252.5C 2182.17,252.5 2165.83,252.5 2149.5,252.5C 2149.5,169.833 2149.5,87.1667 2149.5,4.5 Z"/></g>
<g><path style="opacity:0.989" fill="#fefffe" d="M 2242.5,4.5 C 2260.83,4.5 2279.17,4.5 2297.5,4.5C 2310.17,55.5233 2323.01,106.523 2336,157.5C 2349.94,106.745 2363.11,55.745 2375.5,4.5C 2393.5,4.5 2411.5,4.5 2429.5,4.5C 2429.5,87.1667 2429.5,169.833 2429.5,252.5C 2414.5,252.5 2399.5,252.5 2384.5,252.5C 2384.67,204.166 2384.5,155.832 2384,107.5C 2374.5,146.181 2365,184.847 2355.5,223.5C 2342.25,223.823 2329.09,223.489 2316,222.5C 2306.51,184.204 2297.18,145.87 2288,107.5C 2287.5,155.832 2287.33,204.166 2287.5,252.5C 2272.5,252.5 2257.5,252.5 2242.5,252.5C 2242.5,169.833 2242.5,87.1667 2242.5,4.5 Z"/></g>
<g><path style="opacity:0.974" fill="#fefffe" d="M 2651.5,4.5 C 2668.17,4.5 2684.83,4.5 2701.5,4.5C 2701.5,73.5 2701.5,142.5 2701.5,211.5C 2720.17,211.5 2738.83,211.5 2757.5,211.5C 2757.5,225.167 2757.5,238.833 2757.5,252.5C 2722.17,252.5 2686.83,252.5 2651.5,252.5C 2651.5,169.833 2651.5,87.1667 2651.5,4.5 Z"/></g>
<g><path style="opacity:0.959" fill="#0081cb" d="M 534.5,98.5 C 568.313,97.3107 592.813,111.644 608,141.5C 619.56,173.376 613.393,201.209 589.5,225C 560.445,246.714 530.445,248.047 499.5,229C 471.315,205.433 463.481,176.267 476,141.5C 488.085,117.044 507.585,102.711 534.5,98.5 Z M 540.5,121.5 C 562.287,122.472 577.787,132.805 587,152.5C 594.924,178.063 587.757,198.23 565.5,213C 541.353,223.922 520.52,219.422 503,199.5C 490.333,180.167 490.333,160.833 503,141.5C 512.719,129.393 525.219,122.727 540.5,121.5 Z"/></g>
<g><path style="opacity:0.961" fill="#0081cb" d="M -0.5,184.5 C -0.5,176.167 -0.5,167.833 -0.5,159.5C 6.08326,131.41 23.0833,112.577 50.5,103C 80.7727,95.5368 106.273,103.37 127,126.5C 142.452,147.437 146.452,170.437 139,195.5C 128.996,221.837 110.163,237.671 82.5,243C 47.0435,246.858 21.2101,233.025 5,201.5C 2.99182,195.768 1.15849,190.102 -0.5,184.5 Z M 63.5,123.5 C 88.0148,122.167 105.515,132.5 116,154.5C 123.705,180.392 116.205,200.558 93.5,215C 67.0134,225.84 45.5134,219.673 29,196.5C 16.4755,169.429 22.3088,147.262 46.5,130C 52.0196,127.11 57.6863,124.943 63.5,123.5 Z"/></g>
<g><path style="opacity:0.956" fill="#0081cb" d="M 308.5,562.5 C 306.833,562.5 305.167,562.5 303.5,562.5C 246.895,507.729 191.062,452.062 136,395.5C 108.15,354.313 105.15,311.313 127,266.5C 155.832,219.673 197.666,200.173 252.5,208C 272.141,211.739 289.641,219.906 305,232.5C 354.626,196.272 404.793,195.438 455.5,230C 493.018,262.244 506.852,302.744 497,351.5C 492,370.17 483.333,386.837 471,401.5C 417.244,455.757 363.077,509.424 308.5,562.5 Z M 373.5,225.5 C 420.237,224.768 453.404,245.434 473,287.5C 485.927,324.377 479.927,357.71 455,387.5C 452.779,381.39 449.779,375.723 446,370.5C 414.833,339.333 383.667,308.167 352.5,277C 347.833,273.667 343.167,273.667 338.5,277C 318.833,296.667 299.167,316.333 279.5,336C 269.926,341.635 261.759,340.135 255,331.5C 251.735,325.528 251.735,319.528 255,313.5C 277.167,291.333 299.333,269.167 321.5,247C 336.942,235.108 354.275,227.941 373.5,225.5 Z M 222.5,226.5 C 247.896,225.356 270.563,232.522 290.5,248C 273.333,265.167 256.167,282.333 239,299.5C 227.086,319.388 229.586,337.221 246.5,353C 260.955,362.473 275.622,362.807 290.5,354C 309.333,336.5 327.5,318.333 345,299.5C 374.695,328.861 404.028,358.528 433,388.5C 436.167,406.667 428.667,414.167 410.5,411C 383.861,385.362 357.528,359.362 331.5,333C 326.704,329.09 321.704,328.757 316.5,332C 312.477,336.553 311.977,341.387 315,346.5C 340,371.5 365,396.5 390,421.5C 397.679,432.114 396.179,441.281 385.5,449C 379.985,451.238 374.651,450.905 369.5,448C 343.195,422.695 317.195,397.028 291.5,371C 284.84,366.969 279.34,368.136 275,374.5C 274.035,378.782 274.702,382.782 277,386.5C 303.695,412.861 330.028,439.528 356,466.5C 358.446,472.266 357.779,477.599 354,482.5C 346.829,470.665 336.329,464.665 322.5,464.5C 320.974,442.64 309.307,430.64 287.5,428.5C 285.176,406.843 273.176,394.843 251.5,392.5C 249.352,370.685 237.352,359.018 215.5,357.5C 207.374,357.709 200.041,360.209 193.5,365C 183.667,374.833 173.833,384.667 164,394.5C 137.633,368.39 128.3,337.057 136,300.5C 149.406,257.581 178.239,232.914 222.5,226.5 Z M 211.5,378.5 C 224.473,377.64 230.639,383.64 230,396.5C 229.439,398.725 228.439,400.725 227,402.5C 218,411.5 209,420.5 200,429.5C 193.167,422.667 186.333,415.833 179.5,409C 189.783,398.211 200.45,388.045 211.5,378.5 Z M 248.5,413.5 C 258.755,413.424 264.755,418.424 266.5,428.5C 265.79,431.673 264.623,434.673 263,437.5C 253.667,446.833 244.333,456.167 235,465.5C 228.319,458.986 221.819,452.319 215.5,445.5C 224.285,435.213 233.619,425.38 243.5,416C 245.315,415.243 246.981,414.41 248.5,413.5 Z M 282.5,449.5 C 295.983,448.815 302.15,455.149 301,468.5C 291.718,479.95 281.551,490.617 270.5,500.5C 263.5,494.167 256.833,487.5 250.5,480.5C 260.579,469.418 271.246,459.085 282.5,449.5 Z M 321.5,484.5 C 334.798,487.103 339.298,494.77 335,507.5C 325.333,517.167 315.667,526.833 306,536.5C 299.167,529.667 292.333,522.833 285.5,516C 294.833,506.667 304.167,497.333 313.5,488C 316.158,486.522 318.825,485.355 321.5,484.5 Z"/></g>
<g><path style="opacity:0.978" fill="#fefffe" d="M 805.5,299.5 C 850.416,294.11 877.416,313.444 886.5,357.5C 872.541,363.487 858.207,368.487 843.5,372.5C 842.856,363.924 840.356,355.924 836,348.5C 825.046,337.73 814.38,338.063 804,349.5C 798.421,361.64 799.755,372.974 808,383.5C 812.833,388.333 817.667,393.167 822.5,398C 837.59,409.752 852.09,422.252 866,435.5C 887.206,459.534 892.539,486.867 882,517.5C 868.77,546.049 846.27,560.383 814.5,560.5C 773.068,558.402 750.068,536.735 745.5,495.5C 759.876,492.424 774.209,489.091 788.5,485.5C 789.647,485.818 790.481,486.484 791,487.5C 792.449,500.596 798.949,510.096 810.5,516C 830.241,516.92 839.074,507.42 837,487.5C 833.23,477.052 827.063,468.218 818.5,461C 803.72,448.855 789.22,436.355 775,423.5C 751.556,399.633 744.889,371.633 755,339.5C 764.618,317.047 781.452,303.714 805.5,299.5 Z"/></g>
<g><path style="opacity:0.982" fill="#fefffe" d="M 1478.5,299.5 C 1520.43,295.599 1546.93,313.933 1558,354.5C 1562.01,369.913 1564.34,385.579 1565,401.5C 1565.85,425.187 1565.52,448.854 1564,472.5C 1562.43,496.212 1555.1,517.879 1542,537.5C 1524.64,556.559 1503.14,563.726 1477.5,559C 1458.81,556.085 1444.65,546.585 1435,530.5C 1423.56,509.661 1417.56,487.327 1417,463.5C 1415.1,432.767 1416.1,402.1 1420,371.5C 1423.16,347.688 1433.32,327.521 1450.5,311C 1459.17,305.283 1468.51,301.45 1478.5,299.5 Z M 1484.5,342.5 C 1494.09,340.464 1501.43,343.464 1506.5,351.5C 1509.03,356.938 1510.87,362.605 1512,368.5C 1515.22,397.748 1516.22,427.081 1515,456.5C 1514.72,469.283 1513.39,481.949 1511,494.5C 1509.98,502.377 1506.48,508.877 1500.5,514C 1487.3,519.713 1478.13,515.88 1473,502.5C 1469.25,489.443 1467.25,476.109 1467,462.5C 1465.9,432.784 1466.57,403.117 1469,373.5C 1469.97,364.613 1472.64,356.28 1477,348.5C 1479.11,345.879 1481.61,343.879 1484.5,342.5 Z"/></g>
<g><path style="opacity:0.978" fill="#fefffe" d="M 2063.5,299.5 C 2103.98,294.138 2130.15,310.805 2142,349.5C 2143.12,352.442 2143.46,355.442 2143,358.5C 2129.26,363.469 2115.43,368.136 2101.5,372.5C 2100.66,362.133 2096.99,352.966 2090.5,345C 2079.06,338.356 2069.22,340.189 2061,350.5C 2056.22,361.839 2057.55,372.506 2065,382.5C 2082.57,399.409 2100.74,415.576 2119.5,431C 2144.68,456.224 2151.18,485.724 2139,519.5C 2125.46,546.708 2103.29,560.374 2072.5,560.5C 2031.12,558.28 2008.12,536.78 2003.5,496C 2018.41,492.023 2033.41,488.523 2048.5,485.5C 2049.44,498.222 2055.1,508.056 2065.5,515C 2083.39,518.887 2093.39,511.72 2095.5,493.5C 2094.2,482.898 2089.7,473.898 2082,466.5C 2064.62,451.97 2047.62,436.97 2031,421.5C 2008.61,397.541 2002.61,369.875 2013,338.5C 2022.93,316.464 2039.76,303.464 2063.5,299.5 Z"/></g>
<g><path style="opacity:0.979" fill="#fefffe" d="M 2805.5,299.5 C 2844.48,295.669 2868.65,312.669 2878,350.5C 2878.74,355.356 2879.57,360.189 2880.5,365C 2880.17,365.5 2879.83,366 2879.5,366.5C 2865.31,370.788 2850.97,374.455 2836.5,377.5C 2836.12,365.966 2832.95,355.299 2827,345.5C 2820.15,338.976 2813.48,339.309 2807,346.5C 2802.16,355.19 2799.16,364.524 2798,374.5C 2793.06,414.887 2793.39,455.22 2799,495.5C 2800.25,503.281 2803.42,510.114 2808.5,516C 2816.18,519.89 2822.68,518.39 2828,511.5C 2833.57,499.467 2836.41,486.8 2836.5,473.5C 2850.99,478.163 2865.32,483.33 2879.5,489C 2878.68,515.633 2867.35,536.633 2845.5,552C 2820.84,564.293 2797.18,562.626 2774.5,547C 2763.27,536.386 2755.77,523.553 2752,508.5C 2747.63,491.786 2745.3,474.786 2745,457.5C 2744.04,431.456 2744.71,405.456 2747,379.5C 2748.72,362.297 2753.38,345.963 2761,330.5C 2771.45,313.858 2786.29,303.525 2805.5,299.5 Z"/></g>
<g><path style="opacity:0.978" fill="#fefffe" d="M 3183.5,356.5 C 3183.5,357.167 3183.5,357.833 3183.5,358.5C 3169.28,363.572 3154.95,368.239 3140.5,372.5C 3139.86,363.928 3137.36,355.928 3133,348.5C 3122.05,337.73 3111.38,338.063 3101,349.5C 3095.42,361.64 3096.75,372.974 3105,383.5C 3117.94,396.783 3131.78,408.95 3146.5,420C 3157.79,428.955 3167.29,439.455 3175,451.5C 3178.96,458.88 3181.79,466.547 3183.5,474.5C 3183.5,483.5 3183.5,492.5 3183.5,501.5C 3175.26,540.001 3151.26,559.668 3111.5,560.5C 3070.07,558.402 3047.07,536.735 3042.5,495.5C 3056.88,492.424 3071.21,489.091 3085.5,485.5C 3086.65,485.818 3087.48,486.484 3088,487.5C 3089.49,497.643 3093.99,506.143 3101.5,513C 3117.24,520.209 3128.08,515.709 3134,499.5C 3135.49,490.319 3133.49,481.986 3128,474.5C 3124.2,469.699 3120.03,465.199 3115.5,461C 3101.24,448.952 3087.07,436.785 3073,424.5C 3064.86,416.223 3058.19,406.89 3053,396.5C 3043.31,369.859 3046.31,344.859 3062,321.5C 3073.1,309.197 3086.94,302.03 3103.5,300C 3147.56,294.598 3174.23,313.431 3183.5,356.5 Z"/></g>
<g><path style="opacity:0.986" fill="#fefffe" d="M 919.5,305.5 C 935.833,305.5 952.167,305.5 968.5,305.5C 968.04,370.519 968.54,435.519 970,500.5C 972.543,509.877 978.71,515.21 988.5,516.5C 998.78,514.72 1004.95,508.72 1007,498.5C 1007.5,434.168 1007.67,369.834 1007.5,305.5C 1023.83,305.5 1040.17,305.5 1056.5,305.5C 1056.67,371.168 1056.5,436.834 1056,502.5C 1049.5,539.99 1027.17,559.324 989,560.5C 946.66,559.191 923.66,537.524 920,495.5C 919.5,432.168 919.333,368.834 919.5,305.5 Z"/></g>
<g><path style="opacity:0.986" fill="#fefffe" d="M 1099.5,305.5 C 1121.5,305.333 1143.5,305.5 1165.5,306C 1196.05,308.566 1215.89,324.4 1225,353.5C 1230.97,377.175 1230.97,400.842 1225,424.5C 1217.2,451.63 1199.37,467.463 1171.5,472C 1163.87,473.069 1156.2,473.569 1148.5,473.5C 1148.5,500.167 1148.5,526.833 1148.5,553.5C 1132.17,553.5 1115.83,553.5 1099.5,553.5C 1099.5,470.833 1099.5,388.167 1099.5,305.5 Z M 1148.5,346.5 C 1164.55,345.39 1174.05,352.723 1177,368.5C 1179,382.167 1179,395.833 1177,409.5C 1174.31,425.698 1164.81,433.698 1148.5,433.5C 1148.5,404.5 1148.5,375.5 1148.5,346.5 Z"/></g>
<g><path style="opacity:0.977" fill="#fefffe" d="M 1259.5,305.5 C 1281.84,305.333 1304.17,305.5 1326.5,306C 1364.76,310.92 1385.59,332.753 1389,371.5C 1389.67,383.5 1389.67,395.5 1389,407.5C 1382.45,453.195 1355.95,475.195 1309.5,473.5C 1309.5,500.167 1309.5,526.833 1309.5,553.5C 1292.83,553.5 1276.17,553.5 1259.5,553.5C 1259.5,470.833 1259.5,388.167 1259.5,305.5 Z M 1309.5,346.5 C 1325.81,346.301 1335.31,354.301 1338,370.5C 1340.22,384.566 1339.89,398.566 1337,412.5C 1333.76,427.243 1324.59,434.243 1309.5,433.5C 1309.5,404.5 1309.5,375.5 1309.5,346.5 Z"/></g>
<g><path style="opacity:0.978" fill="#fefffe" d="M 1601.5,305.5 C 1626.5,305.333 1651.5,305.5 1676.5,306C 1720.28,309.441 1742.28,333.108 1742.5,377C 1743.79,407.671 1730.45,429.004 1702.5,441C 1717.96,478.094 1733.3,515.261 1748.5,552.5C 1729.85,553.5 1711.18,553.833 1692.5,553.5C 1679.3,517.422 1665.8,481.422 1652,445.5C 1651.5,481.498 1651.33,517.498 1651.5,553.5C 1634.83,553.5 1618.17,553.5 1601.5,553.5C 1601.5,470.833 1601.5,388.167 1601.5,305.5 Z M 1651.5,346.5 C 1663.29,344.639 1673.95,347.139 1683.5,354C 1691.92,366.487 1693.76,379.987 1689,394.5C 1684.85,404.498 1677.35,409.998 1666.5,411C 1661.51,411.499 1656.51,411.666 1651.5,411.5C 1651.5,389.833 1651.5,368.167 1651.5,346.5 Z"/></g>
<g><path style="opacity:0.986" fill="#fefffe" d="M 1767.5,305.5 C 1809.5,305.5 1851.5,305.5 1893.5,305.5C 1893.5,319.5 1893.5,333.5 1893.5,347.5C 1880.83,347.5 1868.17,347.5 1855.5,347.5C 1855.5,416.167 1855.5,484.833 1855.5,553.5C 1839.17,553.5 1822.83,553.5 1806.5,553.5C 1806.5,484.833 1806.5,416.167 1806.5,347.5C 1793.5,347.5 1780.5,347.5 1767.5,347.5C 1767.5,333.5 1767.5,319.5 1767.5,305.5 Z"/></g>
<g><path style="opacity:0.988" fill="#fefffe" d="M 2178.5,305.5 C 2213.5,305.5 2248.5,305.5 2283.5,305.5C 2283.5,319.5 2283.5,333.5 2283.5,347.5C 2264.83,347.5 2246.17,347.5 2227.5,347.5C 2227.5,366.833 2227.5,386.167 2227.5,405.5C 2246.17,405.5 2264.83,405.5 2283.5,405.5C 2283.5,419.167 2283.5,432.833 2283.5,446.5C 2264.83,446.5 2246.17,446.5 2227.5,446.5C 2227.5,468.5 2227.5,490.5 2227.5,512.5C 2246.17,512.5 2264.83,512.5 2283.5,512.5C 2283.5,526.167 2283.5,539.833 2283.5,553.5C 2248.5,553.5 2213.5,553.5 2178.5,553.5C 2178.5,470.833 2178.5,388.167 2178.5,305.5 Z"/></g>
<g><path style="opacity:0.985" fill="#fefffe" d="M 2323.5,305.5 C 2348.5,305.333 2373.5,305.5 2398.5,306C 2447.25,311.262 2469.08,338.429 2464,387.5C 2461.63,413.354 2448.46,431.02 2424.5,440.5C 2439.64,477.914 2454.97,515.247 2470.5,552.5C 2451.83,553.833 2433.17,553.833 2414.5,552.5C 2400.67,516.167 2386.83,479.833 2373,443.5C 2372.5,480.165 2372.33,516.832 2372.5,553.5C 2356.17,553.5 2339.83,553.5 2323.5,553.5C 2323.5,470.833 2323.5,388.167 2323.5,305.5 Z M 2372.5,346.5 C 2398.03,342.39 2411.7,353.057 2413.5,378.5C 2413.79,388.792 2410.46,397.626 2403.5,405C 2393.95,410.544 2383.62,412.71 2372.5,411.5C 2372.5,389.833 2372.5,368.167 2372.5,346.5 Z"/></g>
<g><path style="opacity:0.981" fill="#fefffe" d="M 2485.5,305.5 C 2503.17,305.5 2520.83,305.5 2538.5,305.5C 2544.52,359.645 2551.02,413.645 2558,467.5C 2565.97,413.511 2573.81,359.511 2581.5,305.5C 2597.5,305.5 2613.5,305.5 2629.5,305.5C 2614.32,387.88 2598.82,470.213 2583,552.5C 2565.91,553.492 2548.74,553.825 2531.5,553.5C 2516.3,470.81 2500.96,388.143 2485.5,305.5 Z"/></g>
<g><path style="opacity:0.984" fill="#fefffe" d="M 2659.5,305.5 C 2675.83,305.5 2692.17,305.5 2708.5,305.5C 2708.5,388.167 2708.5,470.833 2708.5,553.5C 2692.17,553.5 2675.83,553.5 2659.5,553.5C 2659.5,470.833 2659.5,388.167 2659.5,305.5 Z"/></g>
<g><path style="opacity:0.988" fill="#fefffe" d="M 2911.5,305.5 C 2946.5,305.5 2981.5,305.5 3016.5,305.5C 3016.5,319.5 3016.5,333.5 3016.5,347.5C 2997.83,347.5 2979.17,347.5 2960.5,347.5C 2960.5,366.833 2960.5,386.167 2960.5,405.5C 2979.17,405.5 2997.83,405.5 3016.5,405.5C 3016.5,419.167 3016.5,432.833 3016.5,446.5C 2997.83,446.5 2979.17,446.5 2960.5,446.5C 2960.5,468.5 2960.5,490.5 2960.5,512.5C 2979.17,512.5 2997.83,512.5 3016.5,512.5C 3016.5,526.167 3016.5,539.833 3016.5,553.5C 2981.5,553.5 2946.5,553.5 2911.5,553.5C 2911.5,470.833 2911.5,388.167 2911.5,305.5 Z"/></g>
</svg>
